<svg width="726" height="707" viewBox="0 0 726 707" fill="none" xmlns="http://www.w3.org/2000/svg">
  <path fill-rule="evenodd" clip-rule="evenodd"
    d="M534.976 284.906L535.087 285.524C541.187 319.37 549.084 353.827 558.557 387.913L558.821 388.862L557.836 388.864C486.822 388.992 418.736 441.611 405.743 506.27L405.008 506.122L405.743 506.27C394.543 561.985 427.893 608.507 482.81 620.126L482.5 621.594C426.837 609.817 392.899 562.553 404.272 505.975C417.36 440.842 485.555 387.979 556.849 387.369C547.538 353.756 539.759 319.79 533.723 286.409C426.893 286.909 324.6 366.108 305.037 463.441C295.242 512.175 308.038 556.214 336.607 588.049C365.18 619.89 409.581 639.574 463.08 639.478C474.126 639.46 485.124 638.596 495.994 636.959L496.217 638.442C485.276 640.09 474.205 640.96 463.083 640.978C409.212 641.075 364.384 621.248 335.49 589.051C306.592 556.848 293.683 512.323 303.567 463.146C323.323 364.849 426.656 285.1 534.348 284.907L534.976 284.906Z"
    fill="#272525" />
  <path fill-rule="evenodd" clip-rule="evenodd"
    d="M482.806 620.126C491.501 621.965 516.393 623.926 526.121 623.908L526.123 625.408C516.333 625.427 491.328 623.461 482.495 621.594L482.806 620.126Z"
    fill="#272525" />
  <path fill-rule="evenodd" clip-rule="evenodd"
    d="M535.157 285.911L536.175 284.899L534.353 284.902C426.661 285.095 323.328 364.844 303.571 463.141L303.445 463.769L304.045 463.992C337.754 476.526 371.62 490.926 404.683 506.798L405.553 507.216L405.743 506.27C418.736 441.611 486.822 388.992 557.836 388.864L558.821 388.862L558.557 387.913C549.12 353.957 541.248 319.633 535.157 285.911ZM533.722 286.404C427.124 286.906 325.044 365.765 305.169 462.81C338.429 475.198 371.834 489.397 404.466 505.031C418.02 440.332 485.9 387.976 556.85 387.369C547.538 353.754 539.759 319.787 533.722 286.404Z"
    fill="#272525" />
  <path fill-rule="evenodd" clip-rule="evenodd"
    d="M488.777 404.714C468.728 373.101 449.192 341.372 430.716 310.424L432.004 309.655C450.473 340.591 470.002 372.308 490.044 403.91L488.777 404.714Z"
    fill="#272525" />
  <path fill-rule="evenodd" clip-rule="evenodd"
    d="M434.089 447.209C405.578 422.148 376.729 397.629 348.353 374.344L349.304 373.185C377.694 396.481 406.556 421.011 435.079 446.082L434.089 447.209Z"
    fill="#272525" />
  <path fill-rule="evenodd" clip-rule="evenodd"
    d="M437.15 522.37C448.349 466.673 506.871 421.528 567.849 421.417L567.852 422.917C507.51 423.027 449.665 467.741 438.621 522.666L437.15 522.37Z"
    fill="#272525" />
  <path fill-rule="evenodd" clip-rule="evenodd"
    d="M469.487 539.725C478.861 493.083 527.858 455.296 578.902 455.204L578.905 456.704C528.496 456.795 480.176 494.151 470.958 540.02L469.487 539.725Z"
    fill="#272525" />
  <path fill-rule="evenodd" clip-rule="evenodd"
    d="M550.397 499.132C529.563 468.097 508.831 436.332 488.777 404.714L490.044 403.911C510.09 435.518 530.816 467.271 551.642 498.296L550.397 499.132Z"
    fill="#272525" />
  <path fill-rule="evenodd" clip-rule="evenodd"
    d="M518.537 523.941C491.017 498.091 462.603 472.274 434.089 447.209L435.079 446.082C463.606 471.158 492.032 496.987 519.564 522.847L518.537 523.941Z"
    fill="#272525" />
  <path fill-rule="evenodd" clip-rule="evenodd"
    d="M501.422 558.72C470.298 540.138 437.752 522.671 404.679 506.799L405.328 505.446C438.441 521.338 471.027 538.827 502.191 557.432L501.422 558.72Z"
    fill="#272525" />
  <path fill-rule="evenodd" clip-rule="evenodd"
    d="M464.801 601.518C443.507 583.357 431.11 555.973 437.147 522.385L438.624 522.651C432.687 555.677 444.857 582.537 465.775 600.377C486.714 618.235 516.433 627.062 545.541 623.908L545.703 625.399C516.21 628.595 486.074 619.661 464.801 601.518Z"
    fill="#272525" />
  <path fill-rule="evenodd" clip-rule="evenodd"
    d="M484.743 600.235C470.966 584.581 464.794 563.075 469.487 539.725L470.957 540.02C466.354 562.925 472.411 583.952 485.869 599.244C499.33 614.54 520.236 624.142 545.405 624.096L545.408 625.596C519.85 625.643 498.516 615.886 484.743 600.235Z"
    fill="#272525" />
  <path fill-rule="evenodd" clip-rule="evenodd"
    d="M504.861 593.423C474.45 582.101 442.714 572.964 410.538 566.269L410.843 564.8C443.092 571.51 474.901 580.668 505.384 592.017L504.861 593.423Z"
    fill="#272525" />
  <path fill-rule="evenodd" clip-rule="evenodd"
    d="M550.18 623.539C524.368 617.354 474.803 608.645 448.525 608.457L448.536 606.958C474.988 607.146 524.685 615.888 550.53 622.08L550.18 623.539Z"
    fill="#272525" />
  <path fill-rule="evenodd" clip-rule="evenodd"
    d="M611.601 587.673C590.57 558.138 571.442 530.461 550.402 499.127L551.647 498.291C572.68 529.614 591.8 557.28 612.823 586.803L611.601 587.673Z"
    fill="#272525" />
  <path fill-rule="evenodd" clip-rule="evenodd"
    d="M662.579 505.511C663.809 499.394 664.501 493.39 664.688 487.528L666.187 487.576C665.998 493.523 665.296 499.611 664.05 505.807C663.705 507.519 663.306 509.644 662.858 512.023C662.077 516.169 661.151 521.09 660.12 525.954C658.498 533.605 656.586 541.269 654.502 545.771L653.141 545.14C655.143 540.816 657.026 533.315 658.653 525.643C659.683 520.785 660.598 515.919 661.375 511.791C661.824 509.402 662.227 507.261 662.579 505.511L662.579 505.511Z"
    fill="#272525" />
  <path fill-rule="evenodd" clip-rule="evenodd"
    d="M535.242 286.407C541.287 319.787 549.077 353.753 558.4 387.364C593.998 387.44 623.636 400.609 642.783 421.945C660.892 442.124 669.572 469.562 665.064 499.997C671.758 486.125 680.949 473.442 692.433 462.222C702.145 413.577 689.345 369.623 660.819 337.836C632.406 306.173 588.341 286.531 535.242 286.407ZM694.037 461.841H694.974L693.652 463.129C680.755 475.688 670.779 490.093 664.004 505.953L661.145 512.649L662.579 505.511C669.072 473.21 660.591 444.034 641.667 422.947C622.738 401.853 593.311 388.8 557.831 388.864L557.26 388.865L557.107 388.314C547.622 354.185 539.715 319.682 533.607 285.79L533.448 284.908L534.343 284.907C588.214 284.81 633.042 304.637 661.936 336.834C690.658 368.841 703.586 413.02 694.037 461.841Z"
    fill="#272525" />
  <path fill-rule="evenodd" clip-rule="evenodd"
    d="M656.903 446.069C662.851 420.879 671.939 396.234 683.904 372.817L685.239 373.499C673.329 396.811 664.283 421.343 658.363 446.414L656.903 446.069Z"
    fill="#272525" />
  <path fill-rule="evenodd" clip-rule="evenodd"
    d="M619.038 404.076C619.126 372.391 621.766 340.588 626.868 309.564L628.348 309.807C623.259 340.752 620.625 372.475 620.538 404.08L619.038 404.076Z"
    fill="#272525" />
  <path fill-rule="evenodd" clip-rule="evenodd"
    d="M558.818 388.865C593.857 389.043 622.913 402.049 641.667 422.947C660.591 444.034 669.072 473.21 662.579 505.511L664.05 505.807C670.632 473.062 662.037 443.4 642.783 421.945C623.534 400.495 593.681 387.299 557.829 387.364L556.844 387.365L557.107 388.314C566.593 422.453 577.73 456.505 590.217 489.533L591.62 489.002C579.266 456.324 568.233 422.641 558.818 388.865Z"
    fill="#272525" />
  <path fill-rule="evenodd" clip-rule="evenodd"
    d="M638.384 462.622C653.783 486.698 660.155 517.744 654.557 545.603L653.086 545.308C658.604 517.85 652.321 487.197 637.121 463.43C621.926 439.674 597.871 422.862 567.852 422.917L567.849 421.417C598.491 421.361 622.979 438.536 638.384 462.622Z"
    fill="#272525" />
  <path fill-rule="evenodd" clip-rule="evenodd"
    d="M578.897 455.203C630.11 455.111 663.834 499.44 654.447 546.149L652.976 545.853C662.181 500.051 629.14 456.612 578.9 456.703L578.897 455.203Z"
    fill="#272525" />
  <path fill-rule="evenodd" clip-rule="evenodd"
    d="M648.357 523.173C648.067 497.206 650.94 471.268 656.898 446.073L658.358 446.418C652.428 471.494 649.569 497.311 649.857 523.156L648.357 523.173Z"
    fill="#272525" />
  <path fill-rule="evenodd" clip-rule="evenodd"
    d="M626.302 498.692C621.389 467.595 618.942 435.764 619.038 404.075L620.538 404.08C620.442 435.689 622.883 467.44 627.784 498.458L626.302 498.692Z"
    fill="#272525" />
  <path fill-rule="evenodd" clip-rule="evenodd"
    d="M639.813 561.402C634.183 540.892 629.655 519.9 626.303 498.693L627.784 498.458C631.128 519.612 635.644 540.549 641.259 561.005L639.813 561.402Z"
    fill="#272525" />
  <path fill-rule="evenodd" clip-rule="evenodd"
    d="M501.422 558.719C470.298 540.138 437.752 522.67 404.679 506.798L405.328 505.446C438.441 521.337 471.027 538.826 502.191 557.431L501.422 558.719Z"
    fill="#272525" />
  <path fill-rule="evenodd" clip-rule="evenodd"
    d="M549.922 623.42C535.557 613.434 528.209 596.406 532.087 577.117L533.557 577.412C529.795 596.125 536.911 612.549 550.778 622.189L549.922 623.42Z"
    fill="#272525" />
  <path fill-rule="evenodd" clip-rule="evenodd"
    d="M563.562 617.277C561.267 611.224 560.673 604.341 562.139 597.054L563.609 597.35C562.196 604.376 562.775 610.971 564.965 616.745L563.562 617.277Z"
    fill="#272525" />
  <path fill-rule="evenodd" clip-rule="evenodd"
    d="M501.422 558.719C470.298 540.138 437.752 522.67 404.679 506.798L405.328 505.446C438.441 521.337 471.027 538.826 502.191 557.431L501.422 558.719Z"
    fill="#272525" />
  <path fill-rule="evenodd" clip-rule="evenodd"
    d="M550.397 499.132C529.563 468.097 508.83 436.332 488.777 404.714L490.043 403.911C510.09 435.518 530.816 467.271 551.642 498.296L550.397 499.132Z"
    fill="#272525" />
  <path fill-rule="evenodd" clip-rule="evenodd"
    d="M518.537 523.941C491.017 498.091 462.603 472.274 434.088 447.209L435.079 446.082C463.606 471.158 492.032 496.987 519.564 522.847L518.537 523.941Z"
    fill="#272525" />
  <path fill-rule="evenodd" clip-rule="evenodd"
    d="M405.35 563.769C407.115 564.101 408.937 564.444 410.824 564.798L410.831 564.799L410.838 564.8C443.088 571.51 474.896 580.668 505.379 592.017L504.856 593.423C474.447 582.102 442.714 572.965 410.54 566.27C408.65 565.916 406.824 565.573 405.057 565.241C365.935 557.889 355.39 555.907 312.809 553.544L312.892 552.046C355.57 554.415 366.182 556.409 405.35 563.769Z"
    fill="#272525" />
  <path fill-rule="evenodd" clip-rule="evenodd"
    d="M591.432 488.512L591.616 488.998C604.209 522.31 612.712 543.333 627.868 574.219L626.521 574.88C611.41 544.086 602.898 523.07 590.397 490.016C549.501 490.345 510.413 520.556 502.644 557.705C533.815 576.324 552.037 587.674 580.178 608.411L579.288 609.619C551.066 588.821 532.85 577.491 501.417 558.719L500.962 558.448L501.067 557.928C508.766 519.612 549.004 488.592 590.913 488.513L591.432 488.512Z"
    fill="#272525" />
  <path fill-rule="evenodd" clip-rule="evenodd"
    d="M532.092 577.117C538.255 546.44 570.462 521.617 603.997 521.557L604 523.057C571.101 523.116 539.57 547.508 533.562 577.413L532.092 577.117Z"
    fill="#272525" />
  <path fill-rule="evenodd" clip-rule="evenodd"
    d="M562.14 597.05C566.927 573.212 591.939 553.945 617.975 553.898L617.978 555.398C592.577 555.444 568.243 574.28 563.61 597.345L562.14 597.05Z"
    fill="#272525" />
  <path fill-rule="evenodd" clip-rule="evenodd"
    d="M595.908 599.148C570.196 573.249 546.332 550.047 518.542 523.945L519.568 522.852C547.371 548.965 571.248 572.179 596.973 598.091L595.908 599.148Z"
    fill="#272525" />
  <path fill-rule="evenodd" clip-rule="evenodd"
    d="M562.411 618.216C543.814 609.057 524.557 600.759 504.856 593.423L505.38 592.018C525.128 599.371 544.431 607.689 563.073 616.871L562.411 618.216Z"
    fill="#272525" />
  <path fill-rule="evenodd" clip-rule="evenodd"
    d="M558.818 388.865C593.857 389.043 622.913 402.049 641.667 422.947C660.591 444.034 669.072 473.21 662.579 505.511L664.05 505.807C670.632 473.062 662.037 443.4 642.783 421.945C623.534 400.495 593.681 387.299 557.829 387.364L556.844 387.365L557.107 388.314C566.593 422.453 577.73 456.505 590.217 489.533L591.62 489.002C579.266 456.324 568.233 422.641 558.818 388.865Z"
    fill="#272525" />
  <path fill-rule="evenodd" clip-rule="evenodd"
    d="M603.997 521.561C626.551 521.519 644.096 532.689 651.314 549.434L649.936 550.027C642.992 533.917 626.05 523.02 604 523.061L603.997 521.561Z"
    fill="#272525" />
  <path fill-rule="evenodd" clip-rule="evenodd"
    d="M617.976 553.899C626.996 553.885 634.988 556.174 641.392 560.183L640.596 561.454C634.453 557.609 626.742 555.385 617.978 555.398L617.976 553.899Z"
    fill="#272525" />
  <path fill-rule="evenodd" clip-rule="evenodd"
    d="M558.818 388.865C593.857 389.043 622.913 402.049 641.667 422.947C660.591 444.034 669.072 473.21 662.579 505.511L664.05 505.807C670.632 473.062 662.037 443.4 642.783 421.945C623.534 400.495 593.681 387.299 557.829 387.364L556.844 387.365L557.107 388.314C566.593 422.453 577.73 456.505 590.217 489.533L591.62 489.002C579.266 456.324 568.233 422.641 558.818 388.865Z"
    fill="#272525" />
  <path fill-rule="evenodd" clip-rule="evenodd"
    d="M530.58 1.50496C529.982 4.50116 529.407 7.52606 528.857 10.5786C524.475 34.881 521.619 60.9337 520.358 88.1949C617.421 88.2141 698.139 124.028 750.196 182.037C802.399 240.209 825.731 320.65 807.865 409.534C772.149 587.245 585.281 731.494 390.508 731.843C293.095 732.018 212.081 696.167 159.884 638.001C107.681 579.829 84.3487 499.389 102.215 410.505C137.887 233.011 324.342 88.898 518.857 88.1975C520.107 61.0951 522.931 35.1743 527.263 10.9658C527.833 7.78326 528.428 4.63032 529.05 1.50818C286.159 2.3983 53.4167 182.394 8.91395 403.809C-13.3597 514.627 15.7351 614.824 80.743 687.265C145.756 759.712 246.737 804.451 368.318 804.234C611.54 803.798 844.812 623.624 889.371 401.931C911.644 291.112 882.549 190.916 817.542 118.474C752.638 46.1494 651.888 1.43871 530.58 1.50496ZM818.658 117.473C883.996 190.281 913.204 290.964 890.841 402.226C846.127 624.693 612.178 805.297 368.321 805.734C246.367 805.952 144.959 761.07 79.6266 688.267C14.2888 615.458 -14.9194 514.775 7.44336 403.513C52.1574 181.046 286.107 0.446649 529.964 0.0056751C651.917 -0.212563 753.325 44.6692 818.658 117.473ZM749.08 183.039C697.202 125.229 616.616 89.5216 519.575 89.6955C325.438 90.0436 139.246 233.862 103.685 410.8C85.9085 499.241 109.127 579.195 161 636.999C212.878 694.809 293.464 730.517 390.506 730.343C584.642 729.995 770.834 586.177 806.395 409.238C824.172 320.798 800.953 240.844 749.08 183.039Z"
    fill="#272525" />
  <path fill-rule="evenodd" clip-rule="evenodd"
    d="M530.881 0.00390625L530.7 0.903368C525.224 28.148 521.729 57.7768 520.322 88.9792L520.29 89.6941L519.574 89.6954C325.438 90.0435 139.246 233.862 103.685 410.8L103.546 411.495L102.844 411.395C69.9111 406.706 38.0646 404.36 8.18453 404.415L7.26709 404.417L7.44785 403.518C52.1573 181.046 286.106 0.446539 529.964 0.00556535L530.881 0.00390625ZM9.10014 402.915C38.5805 402.909 69.9442 405.227 102.355 409.81C138.373 232.635 324.595 88.897 518.856 88.1974C520.271 57.5321 523.701 28.3794 529.05 1.50807C286.488 2.39698 54.0465 181.907 9.10014 402.915Z"
    fill="#272525" />
  <path fill-rule="evenodd" clip-rule="evenodd"
    d="M37.9868 404.261C79.6741 196.841 297.792 28.4621 525.144 28.0532L525.147 29.5532C298.43 29.9609 80.9893 197.909 39.4574 404.556L37.9868 404.261Z"
    fill="#272525" />
  <path fill-rule="evenodd" clip-rule="evenodd"
    d="M69.6396 406.591C108.323 214.122 310.715 57.8865 521.672 57.5098L521.675 59.0098C311.354 59.3854 109.638 215.191 71.1102 406.887L69.6396 406.591Z"
    fill="#272525" />
  <path fill-rule="evenodd" clip-rule="evenodd"
    d="M332.388 133.439C318.4 105.835 306.053 79.9083 295.682 56.36L297.055 55.7554C307.413 79.2746 319.748 105.177 333.726 132.761L332.388 133.439Z"
    fill="#272525" />
  <path fill-rule="evenodd" clip-rule="evenodd"
    d="M183.163 249.131C156.863 231.068 131.842 214.961 108.79 201.245L109.557 199.956C132.641 213.691 157.691 229.816 184.012 247.894L183.163 249.131Z"
    fill="#272525" />
  <path fill-rule="evenodd" clip-rule="evenodd"
    d="M8.78867 404.414C-13.2591 514.994 15.8478 614.959 80.7381 687.269C145.642 759.594 246.392 804.305 367.701 804.238C373.094 777.585 380.378 753.236 389.371 731.843C292.462 731.739 211.874 695.941 159.879 638.001C107.829 579.999 84.4804 499.858 102.054 411.283C69.6237 406.7 38.2546 404.392 8.78867 404.414ZM8.17766 402.915C38.1366 402.86 70.0548 405.212 103.051 409.909L103.837 410.021L103.681 410.8C85.9036 499.24 109.122 579.194 160.995 636.999C212.873 694.809 293.459 730.516 390.501 730.342L391.636 730.34L391.192 731.386C381.974 753.081 374.526 777.895 369.05 805.135L368.929 805.737L368.316 805.738C246.362 805.956 144.955 761.074 79.6217 688.271C14.2839 615.462 -14.9243 514.779 7.43848 403.517L7.55952 402.915H8.17766Z"
    fill="#272525" />
  <path fill-rule="evenodd" clip-rule="evenodd"
    d="M105.283 669.764C44.362 601.876 17.1305 507.999 37.9821 404.261L39.4527 404.556C18.6902 507.851 45.8084 601.242 106.399 668.762C166.995 736.288 261.119 777.99 374.45 777.786L374.452 779.286C260.749 779.491 166.199 737.646 105.283 669.764Z"
    fill="#272525" />
  <path fill-rule="evenodd" clip-rule="evenodd"
    d="M132.096 652.968C75.562 589.97 50.2921 502.854 69.6395 406.591L71.1101 406.887C51.8518 502.706 77.0083 589.335 133.212 651.966C189.421 714.602 276.732 753.287 381.865 753.097L381.868 754.597C276.362 754.788 188.624 715.96 132.096 652.968Z"
    fill="#272525" />
  <path fill-rule="evenodd" clip-rule="evenodd"
    d="M118.644 573.336C87.0017 582 56.4785 593.388 27.9176 607.185L27.2651 605.835C55.9111 591.997 86.5204 580.576 118.248 571.89L118.644 573.336Z"
    fill="#272525" />
  <path fill-rule="evenodd" clip-rule="evenodd"
    d="M222.069 688.162C198.938 706.286 177.168 727.42 157.365 750.967L156.217 750.001C176.083 726.379 197.927 705.172 221.143 686.981L222.069 688.162Z"
    fill="#272525" />
  <path fill-rule="evenodd" clip-rule="evenodd"
    d="M891.021 401.331L890.841 402.23C846.127 624.697 612.178 805.302 368.32 805.738L367.403 805.74L367.584 804.84C373.077 777.512 380.552 752.603 389.816 730.799L390.01 730.344L390.505 730.343C584.642 729.995 770.833 586.176 806.394 409.238L806.493 408.744L806.989 408.649C832.178 403.845 860.145 401.383 890.104 401.333L891.021 401.331ZM807.765 410.029C771.832 587.362 585.416 731.249 391.004 731.841C381.976 753.188 374.657 777.534 369.236 804.235C611.797 803.35 844.237 623.837 889.188 402.835C859.851 402.933 832.462 405.355 807.765 410.029Z"
    fill="#272525" />
  <path fill-rule="evenodd" clip-rule="evenodd"
    d="M861.613 403.079C819.926 610.499 601.808 778.878 374.456 779.287L374.454 777.787C601.17 777.379 818.611 609.43 860.143 402.784L861.613 403.079Z"
    fill="#272525" />
  <path fill-rule="evenodd" clip-rule="evenodd"
    d="M833.895 405.52C795.212 597.989 592.82 754.225 381.863 754.601L381.86 753.101C592.181 752.726 793.897 596.92 832.425 405.224L833.895 405.52Z"
    fill="#272525" />
  <path fill-rule="evenodd" clip-rule="evenodd"
    d="M577.733 686.692C583.874 704.773 592.243 725.863 602.602 749.384L601.229 749.988C590.859 726.441 582.471 705.308 576.312 687.175L577.733 686.692Z"
    fill="#272525" />
  <path fill-rule="evenodd" clip-rule="evenodd"
    d="M530.575 1.50007C525.213 28.3503 521.776 57.5046 520.353 88.19C617.416 88.2092 698.134 124.023 750.191 182.033C802.18 239.966 825.535 319.987 808.078 408.438C832.809 403.802 860.191 401.416 889.485 401.329C911.535 290.748 882.428 190.781 817.537 118.469C752.633 46.1445 651.883 1.43383 530.575 1.50007ZM890.851 402.148V402.827L890.102 402.828C860.222 402.883 832.349 405.334 807.265 410.118L806.17 410.327L806.39 409.233C824.167 320.793 800.948 240.839 749.075 183.034C697.197 125.224 616.611 89.5167 519.57 89.6907L518.783 89.6921L518.819 88.9068C520.233 57.6369 523.732 27.9312 529.225 0.602987L529.346 0.00188949L529.959 0.000792284C651.912 -0.217446 753.32 44.6643 818.653 117.468C883.977 190.261 913.186 290.915 890.851 402.148Z"
    fill="#272525" />
  <path fill-rule="evenodd" clip-rule="evenodd"
    d="M794.313 137.575C855.234 205.463 882.465 299.34 861.614 403.079L860.143 402.783C880.905 299.488 853.787 206.097 793.196 138.577C732.6 71.0517 638.477 29.3492 525.146 29.553L525.143 28.053C638.846 27.8485 733.397 69.6933 794.313 137.575Z"
    fill="#272525" />
  <path fill-rule="evenodd" clip-rule="evenodd"
    d="M771.444 159.143C827.978 222.141 853.247 309.256 833.9 405.519L832.429 405.224C851.688 309.404 826.531 222.775 770.328 160.145C714.119 97.5089 626.808 58.8238 521.675 59.0139L521.672 57.5139C627.177 57.3232 714.915 96.1506 771.444 159.143Z"
    fill="#272525" />
  <path fill-rule="evenodd" clip-rule="evenodd"
    d="M687.809 132.094C703.177 104.408 721.049 78.394 740.915 54.772L742.063 55.7374C722.26 79.284 704.443 105.218 689.121 132.822L687.809 132.094Z"
    fill="#272525" />
  <path fill-rule="evenodd" clip-rule="evenodd"
    d="M520.358 88.1938L520.322 88.9791C518.948 119.384 519.534 151.645 522.063 184.868L522.125 185.673L521.317 185.675C372.894 185.94 230.555 295.898 203.373 431.145L203.216 431.925L202.447 431.723C168.449 422.798 134.934 415.959 102.844 411.395L102.058 411.283L102.215 410.504C137.935 232.793 324.799 88.5491 519.572 88.1953L520.358 88.1938ZM103.843 410.022C135.513 414.56 168.551 421.303 202.06 430.071C229.736 294.654 372.024 184.839 520.507 184.177C518.046 151.469 517.467 119.692 518.789 89.6975C325.22 90.4349 139.748 233.679 103.843 410.022Z"
    fill="#272525" />
  <path fill-rule="evenodd" clip-rule="evenodd"
    d="M377.987 219.063C361.354 189.145 346.009 160.336 332.383 133.439L333.721 132.761C347.337 159.639 362.673 188.431 379.298 218.334L377.987 219.063Z"
    fill="#272525" />
  <path fill-rule="evenodd" clip-rule="evenodd"
    d="M263.863 307.572C235.942 286.394 208.793 266.729 183.163 249.13L184.012 247.894C209.663 265.508 236.832 285.186 264.769 306.377L263.863 307.572Z"
    fill="#272525" />
  <path fill-rule="evenodd" clip-rule="evenodd"
    d="M102.35 409.805L103.051 409.905C135.203 414.483 168.774 421.329 202.824 430.268L203.508 430.447L203.369 431.141C189.781 498.738 207.527 559.839 247.166 604.011C286.81 648.189 348.401 675.485 422.585 675.353L424.154 675.35L423.171 676.573C410.93 691.796 400.173 710.24 391.193 731.381L390.999 731.837L390.504 731.838C293.09 732.013 212.077 696.163 159.879 637.996C107.676 579.824 84.3441 499.384 102.21 410.5L102.35 409.805ZM103.542 411.49C86.0257 499.655 109.259 579.342 160.995 636.994C212.785 694.706 293.186 730.391 390.006 730.339C398.754 709.841 409.18 691.849 421.031 676.851C347.168 676.603 285.735 649.237 246.05 605.013C206.217 560.625 188.343 499.305 201.759 431.539C168.243 422.767 135.204 416.028 103.542 411.49Z"
    fill="#272525" />
  <path fill-rule="evenodd" clip-rule="evenodd"
    d="M214.568 555.629C181.754 558.937 149.481 564.898 118.644 573.337L118.249 571.89C149.168 563.429 181.523 557.453 214.418 554.137L214.568 555.629Z"
    fill="#272525" />
  <path fill-rule="evenodd" clip-rule="evenodd"
    d="M293.721 643.492C268.718 655.464 244.609 670.5 222.069 688.162L221.144 686.981C243.767 669.254 267.968 654.16 293.073 642.139L293.721 643.492Z"
    fill="#272525" />
  <path fill-rule="evenodd" clip-rule="evenodd"
    d="M808.08 408.44L807.86 409.534C772.139 587.245 585.276 731.489 390.503 731.843L389.752 731.844V730.936L389.812 730.795C398.836 709.553 409.666 690.98 422.002 675.633L422.226 675.353L422.585 675.353C571.008 675.087 713.347 565.129 740.529 429.882L740.603 429.512L740.945 429.351C760.213 420.292 782.439 413.329 806.984 408.649L808.08 408.44ZM741.925 430.548C714.424 566.289 571.74 676.409 422.947 676.852C411.005 691.77 400.472 709.766 391.637 730.339C584.963 729.43 770.126 586.425 806.167 410.334C782.305 414.963 760.695 421.764 741.925 430.548Z"
    fill="#272525" />
  <path fill-rule="evenodd" clip-rule="evenodd"
    d="M566.001 642.217C567.798 654.107 571.746 669.071 577.733 686.692L576.312 687.175C570.311 669.509 566.334 654.453 564.518 642.442L566.001 642.217Z"
    fill="#272525" />
  <path fill-rule="evenodd" clip-rule="evenodd"
    d="M679.761 553.32C692.931 556.565 708.764 562.467 726.799 570.842L726.167 572.202C708.183 563.851 692.446 557.99 679.402 554.776L679.761 553.32Z"
    fill="#272525" />
  <path fill-rule="evenodd" clip-rule="evenodd"
    d="M520.29 89.6899C518.966 119.674 519.541 151.452 522.011 184.17C596.257 184.208 658.013 211.614 697.852 256.01C737.536 300.232 755.425 361.261 742.291 428.726C761.116 420.031 782.711 413.318 806.492 408.744C824.086 320.498 800.857 240.732 749.08 183.034C697.329 125.367 617.012 89.6924 520.29 89.6899ZM807.88 409.456C825.718 320.601 802.384 240.188 750.196 182.032C697.998 123.866 616.985 88.0159 519.571 88.1906L518.856 88.1919L518.824 88.9067C517.446 119.378 518.029 151.699 520.568 184.977L520.621 185.671L521.317 185.67C595.501 185.537 657.092 212.834 696.736 257.012C736.375 301.184 754.121 362.284 740.533 429.882L740.24 431.342L741.588 430.708C760.724 421.711 782.827 414.787 807.27 410.122L807.88 410.006V409.456Z"
    fill="#272525" />
  <path fill-rule="evenodd" clip-rule="evenodd"
    d="M649.791 217.969C660.037 187.967 672.836 159.075 687.809 132.098L689.12 132.826C674.192 159.724 661.428 188.533 651.211 218.453L649.791 217.969Z"
    fill="#272525" />
  <path fill-rule="evenodd" clip-rule="evenodd"
    d="M530.58 1.50496C529.982 4.50116 529.407 7.52606 528.857 10.5786C524.475 34.881 521.619 60.9337 520.358 88.1949C617.421 88.2141 698.139 124.028 750.196 182.037C802.399 240.209 825.731 320.65 807.865 409.534C772.149 587.245 585.281 731.494 390.508 731.843C293.095 732.018 212.081 696.167 159.884 638.001C107.681 579.829 84.3487 499.389 102.215 410.505C137.887 233.011 324.342 88.898 518.857 88.1975C520.107 61.0951 522.931 35.1743 527.263 10.9658C527.833 7.78326 528.428 4.63032 529.05 1.50818C286.159 2.3983 53.4167 182.394 8.91395 403.809C-13.3597 514.627 15.7351 614.824 80.743 687.265C145.756 759.712 246.737 804.451 368.318 804.234C611.54 803.798 844.812 623.624 889.371 401.931C911.644 291.112 882.549 190.916 817.542 118.474C752.638 46.1494 651.888 1.43871 530.58 1.50496ZM818.658 117.473C883.996 190.281 913.204 290.964 890.841 402.226C846.127 624.693 612.178 805.297 368.321 805.734C246.367 805.952 144.959 761.07 79.6266 688.267C14.2888 615.458 -14.9194 514.775 7.44336 403.513C52.1574 181.046 286.107 0.446649 529.964 0.0056751C651.917 -0.212563 753.325 44.6692 818.658 117.473ZM749.08 183.039C697.202 125.229 616.616 89.5216 519.575 89.6955C325.438 90.0436 139.246 233.862 103.685 410.8C85.9085 499.241 109.127 579.195 161 636.999C212.878 694.809 293.464 730.517 390.506 730.343C584.642 729.995 770.834 586.177 806.395 409.238C824.172 320.798 800.953 240.844 749.08 183.039Z"
    fill="#272525" />
  <path fill-rule="evenodd" clip-rule="evenodd"
    d="M520.29 89.6948C518.966 119.679 519.541 151.457 522.011 184.174C596.257 184.213 658.013 211.619 697.852 256.015C737.821 300.554 755.681 362.141 742.004 430.182C714.667 566.202 571.651 676.591 422.592 676.857C348.036 676.991 286.018 649.552 246.054 605.018C206.085 560.478 188.226 498.891 201.902 430.85C229.19 295.075 371.74 184.84 520.507 184.177C518.334 155.341 517.63 127.229 518.399 100.423C518.502 96.824 518.632 93.2483 518.789 89.6977C324.935 90.4362 139.203 234.1 103.685 410.8C85.9082 499.241 109.127 579.195 161 636.999C212.878 694.809 293.464 730.517 390.505 730.343C584.642 729.99 770.829 586.177 806.394 409.238C824.171 320.798 800.952 240.843 749.08 183.039C697.33 125.371 617.012 89.6973 520.29 89.6948ZM750.196 182.037C802.399 240.209 825.731 320.65 807.865 409.534C772.144 587.245 585.28 731.489 390.508 731.843C293.095 732.018 212.081 696.167 159.883 638.001C107.681 579.829 84.3485 499.389 102.215 410.504C137.935 232.793 324.799 88.5493 519.572 88.1955C616.985 88.0208 697.998 123.871 750.196 182.037ZM696.736 257.016C657.092 212.839 595.501 185.542 521.317 185.675C372.894 185.94 230.555 295.898 203.373 431.145C189.785 498.743 207.532 559.844 247.171 604.016C286.814 648.193 348.405 675.49 422.59 675.357C571.012 675.092 713.351 565.134 740.534 429.887C754.121 362.289 736.375 301.188 696.736 257.016Z"
    fill="#272525" />
  <path fill-rule="evenodd" clip-rule="evenodd"
    d="M530.881 0.00390625L530.7 0.903368C525.224 28.148 521.729 57.7768 520.322 88.9792L520.29 89.6941L519.574 89.6954C325.438 90.0435 139.246 233.862 103.685 410.8L103.546 411.495L102.844 411.395C69.9111 406.706 38.0646 404.36 8.18453 404.415L7.26709 404.417L7.44785 403.518C52.1573 181.046 286.106 0.446539 529.964 0.00556535L530.881 0.00390625ZM9.10014 402.915C38.5805 402.909 69.9442 405.227 102.355 409.81C138.373 232.635 324.595 88.897 518.856 88.1974C520.271 57.5321 523.701 28.3794 529.05 1.50807C286.488 2.39698 54.0465 181.907 9.10014 402.915Z"
    fill="#272525" />
  <path fill-rule="evenodd" clip-rule="evenodd"
    d="M332.388 133.439C318.4 105.835 306.053 79.9083 295.682 56.36L297.055 55.7554C307.413 79.2746 319.748 105.177 333.726 132.761L332.388 133.439Z"
    fill="#272525" />
  <path fill-rule="evenodd" clip-rule="evenodd"
    d="M183.163 249.131C156.863 231.068 131.842 214.961 108.79 201.245L109.557 199.956C132.641 213.691 157.691 229.816 184.012 247.894L183.163 249.131Z"
    fill="#272525" />
  <path fill-rule="evenodd" clip-rule="evenodd"
    d="M8.78867 404.414C-13.2591 514.994 15.8478 614.959 80.7381 687.269C145.642 759.594 246.392 804.305 367.701 804.238C373.094 777.585 380.378 753.236 389.371 731.843C292.462 731.739 211.874 695.941 159.879 638.001C107.829 579.999 84.4804 499.858 102.054 411.283C69.6237 406.7 38.2546 404.392 8.78867 404.414ZM8.17766 402.915C38.1366 402.86 70.0548 405.212 103.051 409.909L103.837 410.021L103.681 410.8C85.9036 499.24 109.122 579.194 160.995 636.999C212.873 694.809 293.459 730.516 390.501 730.342L391.636 730.34L391.192 731.386C381.974 753.081 374.526 777.895 369.05 805.135L368.929 805.737L368.316 805.738C246.362 805.956 144.955 761.074 79.6217 688.271C14.2839 615.462 -14.9243 514.779 7.43848 403.517L7.55952 402.915H8.17766Z"
    fill="#272525" />
  <path fill-rule="evenodd" clip-rule="evenodd"
    d="M118.644 573.336C87.0017 582 56.4785 593.388 27.9176 607.185L27.2651 605.835C55.9111 591.997 86.5204 580.576 118.248 571.89L118.644 573.336Z"
    fill="#272525" />
  <path fill-rule="evenodd" clip-rule="evenodd"
    d="M222.069 688.162C198.938 706.286 177.168 727.42 157.365 750.967L156.217 750.001C176.083 726.379 197.927 705.172 221.143 686.981L222.069 688.162Z"
    fill="#272525" />
  <path fill-rule="evenodd" clip-rule="evenodd"
    d="M530.575 1.50007C525.213 28.3503 521.776 57.5046 520.353 88.19C617.416 88.2092 698.134 124.023 750.191 182.033C802.18 239.966 825.535 319.987 808.078 408.438C832.809 403.802 860.191 401.416 889.485 401.329C911.535 290.748 882.428 190.781 817.537 118.469C752.633 46.1445 651.883 1.43383 530.575 1.50007ZM890.851 402.148V402.827L890.102 402.828C860.222 402.883 832.349 405.334 807.265 410.118L806.17 410.327L806.39 409.233C824.167 320.793 800.948 240.839 749.075 183.034C697.197 125.224 616.611 89.5167 519.57 89.6907L518.783 89.6921L518.819 88.9068C520.233 57.6369 523.732 27.9312 529.225 0.602987L529.346 0.00188949L529.959 0.000792284C651.912 -0.217446 753.32 44.6643 818.653 117.468C883.977 190.261 913.186 290.915 890.851 402.148Z"
    fill="#272525" />
  <path fill-rule="evenodd" clip-rule="evenodd"
    d="M687.809 132.094C703.177 104.408 721.049 78.394 740.915 54.772L742.063 55.7374C722.26 79.284 704.443 105.218 689.121 132.822L687.809 132.094Z"
    fill="#272525" />
  <path fill-rule="evenodd" clip-rule="evenodd"
    d="M520.358 88.1938L520.322 88.9791C518.948 119.384 519.534 151.645 522.063 184.868L522.125 185.673L521.317 185.675C372.894 185.94 230.555 295.898 203.373 431.145L203.216 431.925L202.447 431.723C168.449 422.798 134.934 415.959 102.844 411.395L102.058 411.283L102.215 410.504C137.935 232.793 324.799 88.5491 519.572 88.1953L520.358 88.1938ZM103.843 410.022C135.513 414.56 168.551 421.303 202.06 430.071C229.736 294.654 372.024 184.839 520.507 184.177C518.046 151.469 517.467 119.692 518.789 89.6975C325.22 90.4349 139.748 233.679 103.843 410.022Z"
    fill="#272525" />
  <path fill-rule="evenodd" clip-rule="evenodd"
    d="M134.771 415.821C167.644 252.281 339.607 119.538 518.847 119.216L518.849 120.716C340.246 121.036 168.959 253.349 136.242 416.117L134.771 415.821Z"
    fill="#272525" />
  <path fill-rule="evenodd" clip-rule="evenodd"
    d="M168.07 422.615C198.141 272.998 355.461 151.568 519.429 151.273L519.432 152.773C356.1 153.066 199.456 274.067 169.541 422.911L168.07 422.615Z"
    fill="#272525" />
  <path fill-rule="evenodd" clip-rule="evenodd"
    d="M377.987 219.063C361.354 189.145 346.009 160.336 332.383 133.439L333.721 132.761C347.337 159.639 362.673 188.431 379.298 218.334L377.987 219.063Z"
    fill="#272525" />
  <path fill-rule="evenodd" clip-rule="evenodd"
    d="M263.863 307.572C235.942 286.394 208.793 266.729 183.163 249.13L184.012 247.894C209.663 265.508 236.832 285.186 264.769 306.377L263.863 307.572Z"
    fill="#272525" />
  <path fill-rule="evenodd" clip-rule="evenodd"
    d="M102.35 409.805L103.051 409.905C135.203 414.483 168.774 421.329 202.824 430.268L203.508 430.447L203.369 431.141C189.781 498.738 207.527 559.839 247.166 604.011C286.81 648.189 348.401 675.485 422.585 675.353L424.154 675.35L423.171 676.573C410.93 691.796 400.173 710.24 391.193 731.381L390.999 731.837L390.504 731.838C293.09 732.013 212.077 696.163 159.879 637.996C107.676 579.824 84.3441 499.384 102.21 410.5L102.35 409.805ZM103.542 411.49C86.0257 499.655 109.259 579.342 160.995 636.994C212.785 694.706 293.186 730.391 390.006 730.339C398.754 709.841 409.18 691.849 421.031 676.851C347.168 676.603 285.735 649.237 246.05 605.013C206.217 560.625 188.343 499.305 201.759 431.539C168.243 422.767 135.204 416.028 103.542 411.49Z"
    fill="#272525" />
  <path fill-rule="evenodd" clip-rule="evenodd"
    d="M187.847 625.196C139.802 571.656 118.329 497.622 134.771 415.821L136.242 416.117C119.889 497.474 141.248 571.022 188.963 624.194C236.684 677.372 310.815 710.222 400.09 710.062L400.093 711.562C310.446 711.722 235.887 678.73 187.847 625.196Z"
    fill="#272525" />
  <path fill-rule="evenodd" clip-rule="evenodd"
    d="M216.634 614.178C172.675 565.193 153.03 497.457 168.071 422.62L169.542 422.916C154.59 497.309 174.122 564.559 217.75 613.176C261.384 661.8 329.169 691.84 410.808 691.693L410.811 693.193C328.8 693.341 260.588 663.158 216.634 614.178Z"
    fill="#272525" />
  <path fill-rule="evenodd" clip-rule="evenodd"
    d="M214.568 555.629C181.754 558.937 149.481 564.898 118.644 573.337L118.249 571.89C149.168 563.429 181.523 557.453 214.418 554.137L214.568 555.629Z"
    fill="#272525" />
  <path fill-rule="evenodd" clip-rule="evenodd"
    d="M293.721 643.492C268.718 655.464 244.609 670.5 222.069 688.162L221.144 686.981C243.767 669.254 267.968 654.16 293.073 642.139L293.721 643.492Z"
    fill="#272525" />
  <path fill-rule="evenodd" clip-rule="evenodd"
    d="M808.08 408.44L807.86 409.534C772.139 587.245 585.276 731.489 390.503 731.843L389.752 731.844V730.936L389.812 730.795C398.836 709.553 409.666 690.98 422.002 675.633L422.226 675.353L422.585 675.353C571.008 675.087 713.347 565.129 740.529 429.882L740.603 429.512L740.945 429.351C760.213 420.292 782.439 413.329 806.984 408.649L808.08 408.44ZM741.925 430.548C714.424 566.289 571.74 676.409 422.947 676.852C411.005 691.77 400.472 709.766 391.637 730.339C584.963 729.43 770.126 586.425 806.167 410.334C782.305 414.963 760.695 421.764 741.925 430.548Z"
    fill="#272525" />
  <path fill-rule="evenodd" clip-rule="evenodd"
    d="M784.168 414.956C751.295 578.496 579.332 711.239 400.093 711.561L400.09 710.061C578.694 709.741 749.98 577.428 782.698 414.66L784.168 414.956Z"
    fill="#272525" />
  <path fill-rule="evenodd" clip-rule="evenodd"
    d="M762.169 421.851C732.098 571.469 574.778 692.899 410.811 693.193L410.808 691.693C574.14 691.4 730.783 570.4 760.699 421.556L762.169 421.851Z"
    fill="#272525" />
  <path fill-rule="evenodd" clip-rule="evenodd"
    d="M566.001 642.217C567.798 654.107 571.746 669.071 577.733 686.692L576.312 687.175C570.311 669.509 566.334 654.453 564.518 642.442L566.001 642.217Z"
    fill="#272525" />
  <path fill-rule="evenodd" clip-rule="evenodd"
    d="M679.761 553.32C692.931 556.565 708.764 562.467 726.799 570.842L726.167 572.202C708.183 563.851 692.446 557.99 679.402 554.776L679.761 553.32Z"
    fill="#272525" />
  <path fill-rule="evenodd" clip-rule="evenodd"
    d="M731.093 205.581C779.138 259.121 800.611 333.155 784.168 414.956L782.698 414.661C799.051 333.303 777.692 259.755 729.976 206.583C682.256 153.405 608.124 120.556 518.849 120.716L518.847 119.216C608.493 119.055 683.052 152.047 731.093 205.581Z"
    fill="#272525" />
  <path fill-rule="evenodd" clip-rule="evenodd"
    d="M713.607 230.293C757.565 279.279 777.21 347.014 762.169 421.851L760.699 421.556C775.651 347.162 756.119 279.913 712.49 231.295C668.857 182.671 601.071 152.631 519.432 152.778L519.429 151.278C601.44 151.131 669.653 181.313 713.607 230.293Z"
    fill="#272525" />
  <path fill-rule="evenodd" clip-rule="evenodd"
    d="M649.791 217.969C660.037 187.967 672.836 159.076 687.809 132.098L689.12 132.826C674.192 159.724 661.428 188.534 651.211 218.454L649.791 217.969Z"
    fill="#272525" />
  <path fill-rule="evenodd" clip-rule="evenodd"
    d="M203.513 430.452C236.457 439.128 270.168 449.833 303.742 462.286C323.87 364.651 426.403 285.54 533.453 284.91C527.412 251.23 523.096 217.853 520.621 185.677C372.708 186.283 231.003 295.729 203.513 430.452ZM521.315 184.892L521.314 184.175C372.26 184.441 229.244 294.825 201.902 430.85L201.763 431.543L202.447 431.723C235.827 440.488 270.006 451.343 304.04 463.997L304.864 464.303L305.037 463.441C324.638 365.913 427.299 286.599 534.35 286.407L535.246 286.405L535.087 285.524C528.928 251.348 524.547 217.481 522.063 184.863L521.315 184.892Z"
    fill="#272525" />
  <path fill-rule="evenodd" clip-rule="evenodd"
    d="M430.715 310.424C412.065 279.172 394.326 248.439 377.991 219.062L379.302 218.333C395.629 247.695 413.36 278.416 432.003 309.655L430.715 310.424Z"
    fill="#272525" />
  <path fill-rule="evenodd" clip-rule="evenodd"
    d="M348.357 374.344C319.705 350.834 291.279 328.371 263.867 307.572L264.773 306.377C292.202 327.188 320.643 349.663 349.308 373.184L348.357 374.344Z"
    fill="#272525" />
  <path fill-rule="evenodd" clip-rule="evenodd"
    d="M203.212 431.925C189.918 499.211 207.681 560.01 247.166 604.011C286.746 648.117 348.202 675.397 422.227 675.353C433.666 661.18 446.499 649.621 460.418 640.967C407.732 640.417 363.902 620.716 335.486 589.05C306.71 556.985 293.788 512.702 303.437 463.774C269.862 451.313 236.152 440.603 203.212 431.925ZM202.653 430.92L202.823 430.272C236.254 439.05 270.48 449.921 304.559 462.59L305.159 462.813L305.033 463.441C295.238 512.175 308.034 556.213 336.602 588.049C365.176 619.889 409.577 639.574 463.075 639.478L465.816 639.473L463.46 640.873C448.742 649.616 435.187 661.624 423.171 676.572L422.946 676.852L422.588 676.852C348.031 676.986 286.013 649.547 246.05 605.013C206.081 560.473 188.221 498.886 201.898 430.845L202.653 430.92Z"
    fill="#272525" />
  <path fill-rule="evenodd" clip-rule="evenodd"
    d="M312.814 553.475C279.836 551.661 246.778 552.385 214.563 555.633L214.413 554.141C246.706 550.884 279.843 550.159 312.896 551.978L312.814 553.475Z"
    fill="#272525" />
  <path fill-rule="evenodd" clip-rule="evenodd"
    d="M442.556 608.754C417.951 609.962 390.15 611.328 370.024 616.922L370.006 616.927L369.988 616.931C343.931 622.799 318.275 631.735 293.725 643.492L293.077 642.139C317.721 630.337 343.478 621.365 369.64 615.471C389.936 609.834 417.896 608.462 442.441 607.258C444.484 607.158 446.503 607.059 448.492 606.958L448.568 608.457C446.589 608.556 444.583 608.655 442.556 608.754Z"
    fill="#272525" />
  <path fill-rule="evenodd" clip-rule="evenodd"
    d="M742.298 428.717L742.004 430.177C714.662 566.202 571.646 676.586 422.592 676.853L421.023 676.855L422.006 675.633C434.122 660.561 447.809 648.429 462.698 639.584L462.875 639.479L463.08 639.478C570.132 639.286 672.792 559.973 692.393 462.444L692.439 462.216L692.606 462.054C705.766 449.245 722.031 438.245 740.95 429.351L742.298 428.717ZM693.818 462.968C673.96 561.102 570.818 640.684 463.288 640.978C449.043 649.471 435.89 661.025 424.17 675.346C571.48 674.31 712.415 565.449 740.233 431.351C722.103 440.03 706.5 450.663 693.818 462.968Z"
    fill="#272525" />
  <path fill-rule="evenodd" clip-rule="evenodd"
    d="M566.768 616.123C564.528 621.772 564.226 630.516 566.001 642.217L564.518 642.442C562.733 630.674 562.982 621.601 565.374 615.57L566.768 616.123Z"
    fill="#272525" />
  <path fill-rule="evenodd" clip-rule="evenodd"
    d="M648.424 551.388C656.286 549.46 666.848 550.138 679.765 553.319L679.406 554.776C666.586 551.618 656.3 551.001 648.781 552.845L648.424 551.388Z"
    fill="#272525" />
  <path fill-rule="evenodd" clip-rule="evenodd"
    d="M683.903 372.818C695.982 349.176 711.103 326.58 728.842 305.655L729.986 306.625C712.32 327.465 697.264 349.964 685.239 373.5L683.903 372.818Z"
    fill="#272525" />
  <path fill-rule="evenodd" clip-rule="evenodd"
    d="M626.867 309.56C632.019 278.237 639.734 247.419 649.796 217.964L651.215 218.449C641.181 247.824 633.486 278.561 628.347 309.803L626.867 309.56Z"
    fill="#272525" />
  <path fill-rule="evenodd" clip-rule="evenodd"
    d="M591.474 488.5C579.077 455.666 568.016 421.828 558.594 387.908L557.149 388.31C566.63 422.439 577.767 456.486 590.254 489.515L590.437 490L590.957 489.999C622.131 489.94 645.212 507.289 651.388 531.853L652.115 531.67L651.388 531.853C652.619 536.748 653.229 540.447 653.058 545.803L654.557 545.851C654.734 540.316 654.097 536.473 652.843 531.487C646.506 506.287 622.96 488.633 591.474 488.5Z"
    fill="#272525" />
  <path fill-rule="evenodd" clip-rule="evenodd"
    d="M463.568 640.917C463.568 640.916 463.569 640.916 463.113 640.32C462.658 639.724 462.659 639.724 462.659 639.723L462.661 639.722L462.665 639.719L462.68 639.708C462.692 639.699 462.709 639.686 462.732 639.67C462.776 639.637 462.841 639.591 462.927 639.531C463.098 639.413 463.354 639.242 463.699 639.026C464.389 638.594 465.436 637.984 466.884 637.253C469.779 635.792 474.278 633.851 480.727 631.903C493.626 628.007 514.326 624.083 545.617 623.904L545.626 625.404C514.455 625.582 493.901 629.491 481.161 633.339C474.791 635.263 470.374 637.172 467.559 638.592C466.152 639.302 465.145 639.89 464.494 640.297C464.169 640.501 463.933 640.659 463.781 640.765C463.704 640.817 463.649 640.857 463.614 640.883C463.596 640.895 463.584 640.905 463.576 640.91L463.569 640.916L463.568 640.917Z"
    fill="#272525" />
  <path fill-rule="evenodd" clip-rule="evenodd"
    d="M717.595 450.569C687.523 572.208 556.324 665.935 424.557 660.007L424.625 658.508C555.732 664.407 686.252 571.101 716.139 450.209L717.595 450.569Z"
    fill="#272525" />
  <path fill-rule="evenodd" clip-rule="evenodd"
    d="M533.123 220.864C402.011 214.966 271.496 308.271 241.609 429.164L240.153 428.804C270.224 307.165 401.419 213.438 533.19 219.366L533.123 220.864Z"
    fill="#272525" />
  <path fill-rule="evenodd" clip-rule="evenodd"
    d="M272.791 586.909C305.886 628.393 359.097 655.56 424.624 658.508L424.557 660.006C358.647 657.041 305.013 629.704 271.618 587.845C238.22 545.982 225.111 489.65 240.153 428.803L241.609 429.163C226.672 489.582 239.699 545.43 272.791 586.909Z"
    fill="#272525" />
  <path fill-rule="evenodd" clip-rule="evenodd"
    d="M684.952 292.458C651.857 250.975 598.646 223.808 533.119 220.86L533.186 219.361C599.096 222.327 652.73 249.664 686.125 291.522C719.523 333.385 732.632 389.718 717.59 450.564L716.134 450.204C731.07 389.785 718.044 333.937 684.952 292.458Z"
    fill="#272525" />
  <path fill-rule="evenodd" clip-rule="evenodd"
    d="M547.783 335.809C458.065 335.937 372.016 402.187 355.562 483.659L354.092 483.362C370.703 401.115 457.43 334.438 547.781 334.309L547.783 335.809Z"
    fill="#272525" />
  <path fill-rule="evenodd" clip-rule="evenodd"
    d="M380.742 587.682C404.049 614.242 440.62 630.666 485.451 630.602L485.453 632.102C440.25 632.166 403.245 615.599 379.615 588.671C355.981 561.739 345.784 524.505 354.091 483.362L355.562 483.659C347.341 524.376 357.439 561.126 380.742 587.682Z"
    fill="#272525" />
  <path fill-rule="evenodd" clip-rule="evenodd"
    d="M678.3 495.294C694.745 413.873 637.315 335.682 547.783 335.809L547.781 334.309C638.316 334.18 696.392 413.294 679.771 495.591L678.3 495.294Z"
    fill="#272525" />
  <path fill-rule="evenodd" clip-rule="evenodd"
    d="M706.253 459.978C679.057 569.992 560.4 654.755 441.232 649.395L441.299 647.897C559.809 653.227 677.785 568.885 704.797 459.618L706.253 459.978Z"
    fill="#272525" />
  <path fill-rule="evenodd" clip-rule="evenodd"
    d="M539.392 252.344C420.882 247.014 302.906 331.355 275.895 440.623L274.438 440.263C301.635 330.249 420.291 245.486 539.46 250.845L539.392 252.344Z"
    fill="#272525" />
  <path fill-rule="evenodd" clip-rule="evenodd"
    d="M304.072 583.188C333.98 620.678 382.071 645.234 441.299 647.897L441.232 649.396C381.621 646.715 333.108 621.989 302.899 584.124C272.688 546.254 260.832 495.297 274.439 440.263L275.895 440.623C262.393 495.23 274.167 545.703 304.072 583.188Z"
    fill="#272525" />
  <path fill-rule="evenodd" clip-rule="evenodd"
    d="M676.62 317.053C646.711 279.563 598.621 255.007 539.392 252.344L539.46 250.845C599.07 253.526 647.584 278.252 677.792 316.117C708.004 353.987 719.86 404.943 706.253 459.978L704.797 459.618C718.298 405.011 706.525 354.538 676.62 317.053Z"
    fill="#272525" />
  <path fill-rule="evenodd" clip-rule="evenodd"
    d="M683.886 481.603C680.201 496.506 674.466 510.843 667.026 524.37L665.711 523.647C673.093 510.227 678.778 496.011 682.43 481.243L683.886 481.603Z"
    fill="#272525" />
  <path fill-rule="evenodd" clip-rule="evenodd"
    d="M547.17 311.752C450.224 307.39 353.724 376.386 331.629 465.758L330.173 465.398C352.453 375.279 449.633 305.862 547.238 310.253L547.17 311.752Z"
    fill="#272525" />
  <path fill-rule="evenodd" clip-rule="evenodd"
    d="M353.496 583.269C328.739 552.237 319.026 510.484 330.173 465.397L331.629 465.757C320.588 510.416 330.218 551.685 354.668 582.333C379.118 612.981 418.435 633.063 466.872 635.248L466.88 635.248L466.972 635.246C467.053 635.245 467.174 635.243 467.333 635.24C467.652 635.234 468.123 635.225 468.732 635.21C469.949 635.181 471.716 635.131 473.915 635.05C478.314 634.887 484.436 634.598 491.334 634.091C505.144 633.076 522.001 631.192 534.343 627.725L534.749 629.169C522.252 632.68 505.267 634.571 491.444 635.587C484.524 636.096 478.383 636.386 473.971 636.549C471.765 636.63 469.991 636.68 468.768 636.71C468.156 636.724 467.682 636.734 467.361 636.74C467.201 636.743 467.078 636.745 466.996 636.746L466.902 636.748L466.872 636.748L466.871 636.748C466.87 636.748 466.87 636.748 466.86 635.998L466.871 636.748L466.848 636.748L466.826 636.747C417.997 634.55 378.249 614.296 353.496 583.269Z"
    fill="#272525" />
  <path fill-rule="evenodd" clip-rule="evenodd"
    d="M659.394 364.667C634.94 334.015 595.617 313.931 547.17 311.751L547.237 310.253C596.066 312.45 635.813 332.704 660.566 363.732C685.323 394.764 695.035 436.517 683.891 481.603L682.435 481.243C693.473 436.584 683.844 395.315 659.394 364.667Z"
    fill="#272525" />
  <path fill-rule="evenodd" clip-rule="evenodd"
    d="M560.901 364.164C481.052 360.573 401.566 417.408 383.369 491.008L381.913 490.648C400.295 416.301 480.46 359.045 560.968 362.666L560.901 364.164Z"
    fill="#272525" />
  <path fill-rule="evenodd" clip-rule="evenodd"
    d="M468.678 628.634C403.55 614.05 365.577 556.728 381.913 490.648L383.369 491.008C367.245 556.231 404.659 612.761 469.005 627.17L469.005 627.17C481.518 629.975 493.899 630.718 505.783 629.792C512.113 629.297 520.237 628.562 527.675 627.585C535.147 626.603 541.828 625.388 545.339 623.959L545.904 625.349C542.187 626.861 535.315 628.094 527.871 629.072C520.395 630.054 512.242 630.792 505.9 631.288C493.873 632.224 481.342 631.472 468.678 628.634Z"
    fill="#272525" />
  <path fill-rule="evenodd" clip-rule="evenodd"
    d="M653.308 407.731C633.178 382.498 600.801 365.958 560.901 364.164L560.968 362.666C601.251 364.477 634.051 381.187 654.481 406.796C674.907 432.401 682.921 466.846 673.737 504.033L673.734 504.055C673.728 504.094 673.719 504.151 673.707 504.225C673.682 504.373 673.645 504.59 673.592 504.874C673.485 505.441 673.315 506.272 673.06 507.339C672.548 509.473 671.694 512.551 670.32 516.345C667.573 523.932 662.746 534.388 654.424 545.895L653.209 545.016C661.438 533.636 666.203 523.308 668.91 515.834C670.263 512.097 671.101 509.074 671.601 506.99C671.851 505.948 672.015 505.141 672.118 504.597C672.169 504.325 672.204 504.119 672.226 503.982C672.233 503.939 672.239 503.903 672.244 503.874C672.246 503.857 672.249 503.842 672.251 503.83L672.256 503.793L672.257 503.785L672.257 503.784L672.258 503.783L672.258 503.783L672.263 503.746L672.272 503.708C681.364 466.935 673.435 432.96 653.308 407.731Z"
    fill="#272525" />
  <path fill-rule="evenodd" clip-rule="evenodd"
    d="M510.976 606.415C501.811 594.798 497.615 577.981 501.063 557.948L502.541 558.203C499.151 577.897 503.299 594.262 512.153 605.486C521.004 616.705 534.611 622.861 550.312 622.056L550.388 623.554C534.23 624.382 520.144 618.037 510.976 606.415Z"
    fill="#272525" />
</svg>