<svg width="34" height="40" viewBox="0 0 34 40" fill="none" xmlns="http://www.w3.org/2000/svg">
<path d="M0.979358 9.20862L1.13529 9.72096L1.19327 9.70332L1.24583 9.67317L0.979358 9.20862ZM1.78853 17.0406L2.0926 16.5998L1.253 16.0206V17.0406H1.78853ZM15.8954 26.7708L16.4309 26.7686L16.4297 26.4888L16.1994 26.3299L15.8954 26.7708ZM16.3963 39.409L16.616 38.9206L16.582 38.9054L16.5462 38.895L16.3963 39.409ZM17.1943 37.7902L16.6588 37.7924L16.6627 38.727L17.4671 38.2511L17.1943 37.7902ZM17.1656 30.8877L16.8887 30.4292L16.6288 30.5862L16.63 30.8898L17.1656 30.8877ZM17.1595 29.4276L16.6239 29.4298L16.6279 30.3742L17.4363 29.886L17.1595 29.4276ZM17.1231 20.72L16.8461 20.2618L16.5864 20.4188L16.5877 20.7223L17.1231 20.72ZM32.8066 10.8373L32.2719 10.8086L32.2702 10.8407L32.2723 10.8729L32.8066 10.8373ZM16.6118 0.639391L16.317 1.08641L16.3256 1.09209L16.3344 1.09745L16.6118 0.639391ZM16.0415 0.57734L16.233 1.07748L16.2343 1.07696L16.0415 0.57734ZM15.9385 0.628006L16.2051 1.09273L16.218 1.08485L15.9385 0.628006ZM31.0343 10.8411L31.3115 11.2993L32.0685 10.8414L31.3119 10.383L31.0343 10.8411ZM16.2573 1.88959L16.5348 1.43155L16.2648 1.26795L15.9909 1.42505L16.2573 1.88959ZM15.8703 20.4034L16.4047 20.4376L16.4069 20.4053L16.405 20.373L15.8703 20.4034ZM15.889 25.2443L15.5849 25.6851L16.4289 26.2672L16.4246 25.242L15.889 25.2443ZM1.78853 15.5696H1.253V15.9926L1.66439 16.0906L1.78853 15.5696ZM1.78853 10.189L1.52207 9.72443L1.253 9.87878V10.189H1.78853ZM6.77019 7.33148L7.05252 6.87641L6.78094 6.70792L6.50373 6.86694L6.77019 7.33148ZM8.00514 6.62311L7.73867 6.15857L6.96025 6.60508L7.7228 7.07819L8.00514 6.62311ZM1.07108 9.80808C1.07108 9.76787 1.09758 9.73245 1.13529 9.72096L0.82344 8.69629C0.347361 8.84118 0 9.28336 0 9.80808H1.07108ZM1.07108 19.8393V9.80808H0V19.8393H1.07108ZM1.07108 29.4417V19.8393H0V29.4417H1.07108ZM1.16204 29.5327C1.1118 29.5327 1.07108 29.492 1.07108 29.4417H0C0 30.0835 0.520263 30.6037 1.16204 30.6037V29.5327ZM1.253 29.4417C1.253 29.492 1.21227 29.5327 1.16204 29.5327V30.6037C1.80381 30.6037 2.32408 30.0835 2.32408 29.4417H1.253ZM1.253 19.8393V29.4417H2.32408V19.8393H1.253ZM1.253 17.0406V19.8393H2.32408V17.0406H1.253ZM16.1994 26.3299L2.0926 16.5998L1.48446 17.4814L15.5913 27.2116L16.1994 26.3299ZM16.4811 38.8079L16.4309 26.7686L15.3599 26.773L15.41 38.8124L16.4811 38.8079ZM16.5462 38.895C16.5083 38.8839 16.4813 38.8484 16.4811 38.8079L15.41 38.8124C15.4123 39.3401 15.7654 39.7829 16.2464 39.9232L16.5462 38.895ZM16.7002 38.9162C16.674 38.9315 16.6435 38.9331 16.616 38.9206L16.1767 39.8975C16.5082 40.0466 16.907 40.0382 17.2455 39.8379L16.7002 38.9162ZM32.6268 29.4931L16.7002 38.9162L17.2455 39.8379L33.1723 30.415L32.6268 29.4931ZM32.6588 29.3685C32.6843 29.4117 32.67 29.4675 32.6268 29.4931L33.1723 30.415C33.7246 30.0881 33.9074 29.3754 33.5807 28.8231L32.6588 29.3685ZM32.5342 29.3365C32.5774 29.3109 32.6332 29.3252 32.6588 29.3685L33.5807 28.8231C33.2538 28.2707 32.5411 28.0879 31.9888 28.4147L32.5342 29.3365ZM17.4671 38.2511L32.5342 29.3365L31.9888 28.4147L16.9216 37.3293L17.4671 38.2511ZM16.63 30.8898L16.6588 37.7924L17.7298 37.7879L17.701 30.8854L16.63 30.8898ZM32.5349 20.981L16.8887 30.4292L17.4424 31.3461L33.0886 21.898L32.5349 20.981ZM32.5657 20.8563C32.5917 20.8992 32.5779 20.9552 32.5349 20.981L33.0886 21.898C33.638 21.5662 33.8144 20.852 33.4827 20.3026L32.5657 20.8563ZM32.4409 20.8254C32.4839 20.7995 32.5398 20.8132 32.5657 20.8563L33.4827 20.3026C33.1509 19.7532 32.4365 19.5768 31.8872 19.9085L32.4409 20.8254ZM17.4363 29.886L32.4409 20.8254L31.8872 19.9085L16.8826 28.9691L17.4363 29.886ZM16.5877 20.7223L16.6239 29.4298L17.695 29.4254L17.6587 20.7178L16.5877 20.7223ZM32.2286 10.9573L16.8461 20.2618L17.4003 21.1783L32.7829 11.8737L32.2286 10.9573ZM32.2723 10.8729C32.2746 10.9072 32.258 10.9394 32.2286 10.9573L32.7829 11.8737C33.1681 11.6407 33.3688 11.2198 33.341 10.8017L32.2723 10.8729ZM32.2281 10.7254C32.2572 10.743 32.2737 10.7746 32.2719 10.8086L33.3414 10.866C33.3635 10.4532 33.1634 10.0397 32.783 9.80927L32.2281 10.7254ZM16.3344 1.09745L32.2281 10.7254L32.783 9.80927L16.8894 0.181337L16.3344 1.09745ZM16.2343 1.07696C16.2606 1.06681 16.292 1.06994 16.317 1.08641L16.9067 0.192366C16.6003 -0.00986449 16.2063 -0.0603131 15.8487 0.0777254L16.2343 1.07696ZM16.218 1.08485C16.2227 1.082 16.2277 1.07951 16.233 1.07748L15.8499 0.0772052C15.784 0.102474 15.72 0.133849 15.6591 0.17115L16.218 1.08485ZM1.24583 9.67317L16.2051 1.09273L15.672 0.163462L0.712897 8.74408L1.24583 9.67317ZM31.3119 10.383L16.5348 1.43155L15.9799 2.34765L30.7568 11.2991L31.3119 10.383ZM16.4488 20.2894L31.3115 11.2993L30.7572 10.3828L15.8944 19.373L16.4488 20.2894ZM16.405 20.373C16.4031 20.3389 16.4196 20.3071 16.4488 20.2894L15.8944 19.373C15.5126 19.6039 15.312 20.0195 15.3356 20.4339L16.405 20.373ZM16.4046 20.4443C16.4046 20.442 16.4046 20.4397 16.4047 20.4376L15.3359 20.3693C15.3342 20.3957 15.3334 20.4222 15.3335 20.4488L16.4046 20.4443ZM16.4246 25.242L16.4046 20.4443L15.3335 20.4488L15.3535 25.2464L16.4246 25.242ZM1.69476 16.1043L15.5849 25.6851L16.1931 24.8034L2.30291 15.2227L1.69476 16.1043ZM1.66439 16.0906C1.67426 16.093 1.68441 16.0972 1.69476 16.1043L2.30291 15.2227C2.18182 15.1391 2.04933 15.0812 1.91268 15.0486L1.66439 16.0906ZM1.253 10.189V15.5696H2.32408V10.189H1.253ZM6.50373 6.86694L1.52207 9.72443L2.05501 10.6535L7.03665 7.79603L6.50373 6.86694ZM16.2903 12.6076L7.05252 6.87641L6.48786 7.78655L15.7255 13.5177L16.2903 12.6076ZM16.4154 12.5783C16.389 12.621 16.333 12.6341 16.2903 12.6076L15.7255 13.5177C16.2709 13.8561 16.9873 13.6883 17.3256 13.1429L16.4154 12.5783ZM16.3861 12.453C16.4289 12.4795 16.4419 12.5356 16.4154 12.5783L17.3256 13.1429C17.664 12.5977 17.4961 11.8813 16.9509 11.5429L16.3861 12.453ZM7.7228 7.07819L16.3861 12.453L16.9509 11.5429L8.28747 6.16803L7.7228 7.07819ZM15.9909 1.42505L7.73867 6.15857L8.27161 7.08765L16.5239 2.35414L15.9909 1.42505Z" fill="black"/>
<path fill-rule="evenodd" clip-rule="evenodd" d="M0.979462 9.2087C0.722576 9.28689 0.535645 9.52568 0.535645 9.80816V19.8394V29.4418C0.535645 29.7877 0.816142 30.0683 1.16215 30.0683C1.50815 30.0683 1.78864 29.7877 1.78864 29.4418V19.8394V17.0407L15.8955 26.7709L15.9457 38.8102C15.9468 39.0943 16.1369 39.3335 16.3964 39.4091C16.576 39.4899 16.7906 39.485 16.973 39.3772L32.8997 29.9541C33.1974 29.7779 33.296 29.3937 33.1199 29.0959C32.9437 28.798 32.5594 28.6995 32.2616 28.8757L17.1944 37.7902L17.1657 30.8878L32.8119 21.4397C33.108 21.2607 33.2032 20.8757 33.0244 20.5795C32.8454 20.2833 32.4604 20.1882 32.1641 20.367L17.1596 29.4277L17.1232 20.7201L32.5058 11.4156C32.7132 11.2901 32.8218 11.0636 32.8067 10.8374C32.8188 10.614 32.7103 10.3914 32.5056 10.2674L16.6119 0.639465C16.4462 0.53011 16.2336 0.50332 16.0416 0.577414C16.0059 0.591073 15.9714 0.608 15.9386 0.62808L0.979462 9.2087ZM16.2574 1.88967L31.0344 10.8412L16.1717 19.8313C15.9662 19.9556 15.8576 20.1793 15.8704 20.4035C15.8695 20.4178 15.869 20.4321 15.8692 20.4467L15.8891 25.2444L1.99894 15.6636C1.93322 15.6182 1.8619 15.5872 1.78864 15.5697V10.1891L6.77029 7.33155L16.008 13.0628C16.3021 13.2451 16.6882 13.1547 16.8707 12.8607C17.0531 12.5667 16.9626 12.1804 16.6686 11.9981L8.00524 6.62318L16.2574 1.88967Z" fill="black"/>
</svg>
